# xmcd
#
# Track frame offsets: 
#        150
#        15097
#        40209
#        55620
#        72961
#        93834
#        115812
#        133757
#        148309
#        169136
#        186347
#        203435
#        219599
#        232933
#
# Disc length: 3251 seconds
#
# Revision: 1
# Processed by: cddbd v1.5.2PL0 Copyright (c) Steve Scherf et al.
# Submitted via: ExactAudioCopy v1.3
#
DISCID=bc0cb10e
DTITLE=Various Artist - Soulbag Sampler, Jun 2006
DYEAR=2006
DGENRE=Blues
TTITLE0=R.J. Mischo - The train
TTITLE1=Mel Brown - Ruby Mae
TTITLE2=Willie Kent with Michael Coleman and The Delmark All-Stars - Som
TTITLE2=ething new
TTITLE3=Philipp Fankhauser - The blues don't like a crowd
TTITLE4=Magic Slim and The Teardrops - Close to you
TTITLE5=Karl W. Davis  and The Milkmen - Tear it up
TTITLE6=The Duo - Blues et sexy
TTITLE7=Victory Gospel Singers - Jesus can work it out
TTITLE8=Demi Evans - Heart in my hands
TTITLE9=Charles Pasi - She's
TTITLE10=Roscoe Chenier - Bad luck
TTITLE11=Nico Backton and Wizards of Blues - Back door stranger
TTITLE12=Sunnyland Slim - Going back to Memphis
TTITLE13=Earl King - My love is strong
EXTD=supplément à Soul Bag N°183, juin 2006
EXTT0=
EXTT1=
EXTT2=
EXTT3=
EXTT4=Vienna, 1992
EXTT5=
EXTT6=
EXTT7=
EXTT8=
EXTT9=
EXTT10=
EXTT11=
EXTT12=1954
EXTT13=1955
PLAYORDER=
